<?xml version="1.0" standalone="no"?>
<!DOCTYPE svg PUBLIC "-//W3C//DTD SVG 20010904//EN"
 "http://www.w3.org/TR/2001/REC-SVG-20010904/DTD/svg10.dtd">
<svg version="1.0" xmlns="http://www.w3.org/2000/svg"
 width="1200.000000pt" height="1200.000000pt" viewBox="0 0 1200.000000 1200.000000"
 preserveAspectRatio="xMidYMid meet">
<metadata>
Created by potrace 1.11, written by Peter Selinger 2001-2013
</metadata>
<g transform="translate(0.000000,1200.000000) scale(0.100000,-0.100000)"
fill="#000000" stroke="none">
<path d="M7673 9079 c-77 -14 -125 -49 -168 -122 -45 -78 -40 -178 15 -288 17
-34 174 -253 200 -279 13 -13 89 -129 105 -159 9 -19 28 -73 42 -120 43 -147
149 -422 199 -511 53 -96 102 -170 112 -170 4 0 17 -15 30 -34 22 -32 22 -36
8 -63 -12 -23 -61 -208 -92 -348 -19 -85 -26 -378 -12 -471 51 -325 212 -585
371 -598 38 -3 103 18 130 42 36 31 58 93 72 201 4 25 11 69 16 96 5 28 11 65
14 84 4 32 11 49 19 40 2 -2 27 -53 56 -114 71 -144 92 -178 167 -265 71 -80
158 -165 243 -233 41 -34 102 -88 136 -121 66 -66 128 -109 118 -81 -3 8 -10
15 -14 15 -12 0 -137 129 -185 190 -120 156 -284 426 -384 635 -47 98 -116
261 -125 295 -12 51 -23 57 -48 25 -96 -119 -140 -195 -152 -260 -3 -13 -7
-28 -9 -32 -3 -5 -8 -28 -11 -53 -3 -25 -8 -54 -10 -65 -2 -11 -7 -47 -10 -80
-12 -109 -18 -145 -27 -151 -14 -9 -67 24 -92 58 -65 86 -117 241 -144 423
-14 93 -7 325 11 422 7 33 28 107 37 128 25 60 67 196 73 237 8 55 -13 105
-64 153 -90 84 -153 210 -246 491 -41 123 -86 249 -101 281 -31 67 -103 174
-214 320 -108 142 -138 210 -119 269 22 65 93 76 212 30 149 -56 309 -144 383
-211 58 -52 53 -51 339 -71 253 -19 690 -285 1018 -620 203 -208 427 -537 498
-732 11 -31 25 -68 31 -82 6 -14 17 -38 24 -55 21 -49 59 -132 122 -265 33
-69 86 -183 118 -255 59 -130 137 -272 172 -311 23 -27 81 -56 168 -84 224
-71 321 -114 430 -186 334 -222 425 -289 425 -315 0 -4 -42 -8 -92 -9 -153 -1
-252 -11 -348 -36 -100 -26 -235 -75 -253 -93 -18 -17 -17 -20 11 -79 17 -34
49 -88 73 -119 38 -52 62 -75 159 -155 62 -51 197 -132 301 -180 182 -85 314
-169 443 -285 27 -24 51 -42 53 -39 11 10 -51 108 -108 170 -217 237 -269 282
-462 402 -130 80 -188 128 -213 175 -13 26 -13 27 19 32 18 3 41 7 52 10 137
36 188 47 230 51 96 9 133 16 229 41 53 14 98 25 101 25 14 0 2 38 -17 60 -13
14 -36 43 -53 65 -44 59 -77 90 -215 201 -135 108 -259 198 -355 257 -63 38
-313 155 -377 176 -49 16 -79 54 -130 159 -22 48 -75 157 -118 242 -84 172
-202 434 -245 550 -37 97 -81 181 -162 305 -266 406 -569 695 -1013 967 -129
79 -160 93 -264 124 -138 39 -206 52 -321 59 -118 7 -123 9 -216 82 -141 109
-376 209 -513 217 -23 1 -60 -1 -83 -5z"/>
<path d="M8425 8333 c-11 -2 -30 -6 -43 -9 l-23 -5 20 -27 c11 -15 33 -42 49
-60 16 -18 44 -66 63 -105 18 -40 35 -74 36 -76 6 -9 46 36 59 68 19 45 18 75
-5 120 -33 65 -98 103 -156 94z"/>
<path d="M355 5295 c-5 -2 -43 -11 -83 -20 -135 -31 -192 -68 -229 -150 -16
-37 -18 -98 -19 -860 -1 -451 2 -822 6 -825 7 -4 275 -5 366 -1 l20 1 0 766
c-1 421 2 768 5 769 3 2 25 -40 49 -93 199 -448 557 -1246 576 -1283 27 -55
87 -121 129 -142 107 -54 322 -55 424 -2 42 21 104 88 128 137 28 57 100 214
165 363 22 50 48 108 58 130 26 56 55 123 153 340 46 105 98 219 114 255 17
36 52 115 78 175 27 61 52 114 57 120 4 5 8 -340 8 -765 l0 -775 192 0 c142 0
194 3 198 12 11 27 3 1608 -8 1648 -31 107 -109 160 -282 193 -45 8 -175 9
-220 1 -82 -15 -170 -72 -218 -142 -17 -24 -103 -207 -192 -408 -89 -200 -170
-382 -180 -404 -111 -247 -204 -454 -210 -470 -5 -11 -20 -47 -35 -79 l-26
-60 -75 175 c-41 96 -78 183 -84 194 -5 11 -61 142 -125 290 -64 149 -143 333
-177 410 -33 77 -67 156 -75 175 -76 180 -127 244 -231 293 -57 26 -78 31
-156 32 -50 2 -95 1 -101 0z"/>
<path d="M5867 5263 c-1 -1 -33 -3 -72 -4 -89 -3 -156 -15 -225 -40 -183 -65
-276 -159 -298 -301 -12 -78 -7 -357 7 -393 54 -135 232 -241 466 -276 45 -7
206 -13 365 -14 303 -2 375 -10 431 -48 68 -47 75 -75 70 -319 -1 -68 -50
-121 -135 -147 -57 -18 -101 -19 -616 -20 -305 0 -565 -1 -577 -1 -23 0 -23
-2 -23 -130 0 -128 0 -130 23 -131 12 0 276 -1 587 -1 512 -1 644 3 705 17
197 45 347 138 406 252 23 46 24 58 27 253 3 187 1 210 -17 250 -49 111 -197
204 -389 246 -61 13 -145 17 -412 20 -349 3 -411 9 -463 46 -52 37 -67 86 -67
231 0 174 18 210 116 231 59 13 151 15 700 15 l551 1 0 130 c0 88 -3 130 -11
131 -20 2 -1148 4 -1149 2z"/>
<path d="M9473 4530 c1 -404 5 -745 9 -757 26 -87 117 -192 204 -235 60 -31
163 -64 224 -73 25 -4 54 -9 65 -12 11 -2 49 -6 85 -9 95 -9 1130 -10 1143 -2
8 5 12 50 12 133 l0 125 -188 0 c-627 0 -993 7 -1032 21 -56 20 -93 47 -113
83 -17 31 -18 102 -22 1401 l0 60 -195 0 -195 0 3 -735z"/>
<path d="M7690 5240 c-219 -47 -348 -133 -402 -269 -22 -55 -22 -64 -25 -596
-3 -574 -1 -601 46 -692 43 -85 146 -161 271 -202 145 -48 173 -50 550 -46
195 2 382 7 415 9 l60 6 153 -140 c93 -85 162 -140 175 -141 61 -3 423 -4 429
-2 4 2 -21 29 -55 60 -34 31 -102 93 -152 138 -49 45 -108 97 -130 117 l-39
36 52 26 c91 46 146 116 171 218 8 34 10 210 9 605 l-3 558 -29 63 c-60 129
-173 200 -411 258 -16 5 -248 9 -515 10 -438 3 -493 1 -570 -16z m1010 -263
c62 -18 109 -55 134 -105 15 -30 17 -83 17 -521 0 -539 1 -527 -63 -589 l-35
-33 -119 108 c-65 59 -130 118 -144 131 -14 12 -38 22 -55 23 -37 1 -395 1
-414 0 -9 -1 -5 -9 11 -23 65 -60 218 -197 255 -230 23 -21 39 -39 35 -41 -13
-7 -427 -1 -452 7 -93 27 -152 79 -171 149 -13 46 -18 923 -6 987 14 70 99
133 199 148 29 4 211 7 403 6 294 0 359 -3 405 -17z"/>
<path d="M4584 4712 l-22 -3 0 -497 c-1 -273 -1 -503 -1 -510 -1 -10 -95 -12
-478 -10 -471 3 -479 3 -523 25 -87 43 -84 26 -85 538 l0 450 -195 3 -195 2 0
-472 c0 -472 0 -473 23 -519 52 -106 192 -199 358 -238 123 -28 132 -29 642
-30 l452 -1 0 -85 c0 -96 -13 -132 -57 -162 -27 -18 -85 -40 -128 -48 -11 -2
-305 -4 -652 -4 l-633 -1 0 -130 0 -131 698 4 c383 1 711 6 727 10 171 42 276
94 351 173 92 99 88 59 90 902 1 530 -2 732 -10 733 -36 3 -345 3 -362 1z"/>
<path d="M11605 3988 c-116 -31 -197 -138 -201 -266 -5 -127 49 -220 160 -276
50 -25 64 -28 133 -24 129 6 214 64 261 178 27 64 24 165 -5 232 -56 125 -207
193 -348 156z m199 -82 c108 -63 142 -212 74 -324 -22 -37 -95 -95 -109 -87
-4 3 -10 1 -14 -5 -8 -13 -89 -13 -135 0 -48 13 -106 63 -131 112 -46 90 -19
225 57 286 71 57 178 65 258 18z"/>
<path d="M11576 3870 c-2 -3 -3 -77 -2 -165 l1 -160 27 -3 c27 -3 27 -3 30 70
3 68 5 73 26 74 18 1 31 -13 64 -68 43 -73 53 -82 87 -76 19 3 17 8 -23 73
l-44 69 26 12 c38 16 55 39 58 81 1 29 -4 43 -26 65 -16 15 -37 29 -47 29 -60
4 -175 4 -177 -1z m174 -58 c18 -15 20 -21 11 -45 -6 -15 -12 -27 -13 -27 -2
-1 -29 -3 -60 -7 l-58 -5 0 51 0 51 49 0 c32 0 56 -6 71 -18z"/>
</g>
</svg>
